<svg width="424.2" xmlns="http://www.w3.org/2000/svg" height="151.6229342506851" viewBox="0 0 350 125.1014308999052" class="looka-1j8o68f"><defs id="SvgjsDefs1222"><linearGradient id="SvgjsLinearGradient1227"><stop id="SvgjsStop1228" stop-color="#905e26" offset="0"></stop><stop id="SvgjsStop1229" stop-color="#f5ec9b" offset="0.5"></stop><stop id="SvgjsStop1230" stop-color="#905e26" offset="1"></stop></linearGradient><linearGradient id="SvgjsLinearGradient1231"><stop id="SvgjsStop1232" stop-color="#905e26" offset="0"></stop><stop id="SvgjsStop1233" stop-color="#f5ec9b" offset="0.5"></stop><stop id="SvgjsStop1234" stop-color="#905e26" offset="1"></stop></linearGradient></defs><g id="SvgjsG1223" featurekey="HWvxnO-0" transform="matrix(3.7537538397563632,0,0,3.7537538397563632,0.000001789929313543493,0.22522680552317773)" fill="url(#SvgjsLinearGradient1227)"><path d="M9.38 6 l-3.14 9.16 l1.52 0 l0 0.54 l-1.7 0 l-1.48 4.32 l-1.76 0 l1.5 -4.32 l-4.32 0 l0 -0.54 l0.04 0 c1.48 -0.1 7.58 -7.74 7.58 -9.16 l0.1 0 l1.66 0 z M1.4 15.16 l3.1 0 l2.08 -5.9 c-1.5 2.18 -3.66 4.8 -5.18 5.9 z M15.92 6 c1.74 0 2.48 1.56 2.48 3.62 c0 4.16 -2.92 10.38 -6.34 10.38 c-2.12 0 -2.98 -1.66 -2.98 -3.82 c0 -4.16 3.16 -10.18 6.84 -10.18 z M12.2 19.48 c2.52 0 5.32 -6.68 5.32 -10.46 c0 -1.48 -0.44 -2.52 -1.48 -2.52 c-2.7 0 -5.4 6.52 -5.4 10.32 c0 1.56 0.46 2.66 1.56 2.66 z M27.78 6 l-3.14 9.16 l1.52 0 l0 0.54 l-1.7 0 l-1.48 4.32 l-1.76 0 l1.5 -4.32 l-4.32 0 l0 -0.54 l0.04 0 c1.48 -0.1 7.58 -7.74 7.58 -9.16 l0.1 0 l1.66 0 z M19.799999999999997 15.16 l3.1 0 l2.08 -5.9 c-1.5 2.18 -3.66 4.8 -5.18 5.9 z M52.5 -0.05999999999999872 c1.66 0 2.48 1.1 2.48 2.62 c0 2.36 -1.94 5.78 -5.6 7.74 c-0.2 6.84 -0.76 14.7 -8.92 14.7 c-5.18 0 -7.68 -4.38 -7.68 -8.94 c0 -2.96 1.06 -5.98 3.12 -7.94 c-0.26 -0.6 -0.38 -1.26 -0.38 -1.9 c0 -2.58 2.06 -5.1 5.86 -5.1 c0.38 0 0.56 0.1 0.56 0.2 s-0.16 0.18 -0.48 0.18 c-3.58 0 -5.46 2.28 -5.46 4.68 c0 0.54 0.1 1.08 0.3 1.6 c1.32 -1.1 3.02 -1.78 5.08 -1.78 c3.16 0 4.86 2.16 4.86 5.06 c0.52 -0.14 1.04 -0.3 1.52 -0.48 c0.34 -5.54 0.7 -10.64 4.74 -10.64 z M41.36 6.52 c-2 0 -3.58 0.72 -4.78 1.88 c0.92 1.7 3 3.06 6.32 3.06 c1.02 0 1.96 -0.1 2.84 -0.28 c0 -2.72 -1.58 -4.66 -4.38 -4.66 z M40.3 24.38 c6.46 0 7.02 -6.88 7.42 -13.32 c-0.48 0.16 -0.98 0.32 -1.5 0.44 c-0.16 2.28 -1.36 4.94 -3.76 7.36 c-0.12 0.12 -0.28 0.18 -0.4 0.18 c-0.14 0 -0.24 -0.08 -0.24 -0.2 c0 -0.08 0.06 -0.2 0.2 -0.34 c2.36 -2.38 3.52 -4.82 3.7 -6.88 c-0.88 0.16 -1.84 0.26 -2.84 0.26 c-3.44 0 -5.64 -1.36 -6.66 -3.12 c-1.62 1.8 -2.42 4.46 -2.42 7.06 c0 4.34 2.22 8.56 6.5 8.56 z M49.400000000000006 9.76 c3.26 -1.92 4.9 -5.08 4.9 -7.18 c0 -1.26 -0.6 -2.14 -1.78 -2.14 c-2.92 0 -2.98 4.32 -3.12 9.32 z M62.64 15.280000000000001 l0.34 0.02 s-1.78 4.72 -3.86 4.72 c-1.08 0 -2 1.92 -2.54 3.38 l-0.54 1.6 l-1.66 0 l2.16 -6.7 c-0.78 1.02 -1.66 1.72 -2.44 1.72 c-1.5 0 -2.12 -1.16 -2.12 -2.68 c0 -2.96 2.36 -7.32 5.22 -7.32 c0.9 0 1.4 0.5 1.58 1.28 l0.42 -1.3 l1.78 0 l-3.48 10.62 c0.5 -0.6 1.08 -1 1.76 -1 c1.6 0 3.38 -4.34 3.38 -4.34 z M54.24 19.5 c1.64 0 4 -5.04 4 -7.58 c0 -0.84 -0.28 -1.42 -0.92 -1.42 c-1.7 0 -3.86 5.14 -3.86 7.64 c0 0.82 0.24 1.36 0.78 1.36 z M72.46000000000001 15.26 l0.32 0.02 s-1.58 4.72 -4.06 4.72 c-1.12 0 -2.02 -0.8 -2.02 -2.24 c-0.7 1.14 -1.7 2.24 -2.9 2.24 c-1.08 0 -2.02 -0.78 -2.02 -2.16 c0 -0.98 2.72 -7.84 2.72 -7.84 l1.66 0 s-2.86 7.34 -2.86 8.52 c0 0.6 0.36 0.94 0.84 0.94 c1.16 0 2.4 -2.16 3.02 -3.38 c0.76 -2.34 2.24 -6.08 2.24 -6.08 l1.68 0 s-2.86 7.32 -2.86 8.5 c0 0.6 0.36 0.96 0.84 0.96 c1.6 0 3.4 -4.2 3.4 -4.2 z M82.62 15.26 l0.34 0.04 s-1.8 4.7 -3.88 4.7 c-1.28 0 -2.22 -0.72 -2.22 -2.18 c-0.86 1.28 -1.86 2.18 -2.76 2.18 c-1.5 0 -2.12 -1.16 -2.12 -2.68 c0 -2.96 2.36 -7.32 5.22 -7.32 c1.1 0 1.6 0.74 1.66 1.82 c0.42 -1.06 0.72 -1.82 0.72 -1.82 l1.66 0 s-2.84 7.34 -2.84 8.52 c0 0.6 0.36 0.94 0.82 0.94 c1.6 0 3.4 -4.2 3.4 -4.2 z M74.24000000000001 19.48 c1.64 0 4 -5.02 4 -7.56 c0 -0.84 -0.28 -1.42 -0.92 -1.42 c-1.7 0 -3.86 5.12 -3.86 7.64 c0 0.8 0.24 1.34 0.78 1.34 z M92.9 15.280000000000001 l0.34 0.02 s-1.8 4.7 -3.88 4.7 c-1.32 0 -2.22 -0.74 -2.22 -2.24 c-0.86 1.3 -1.88 2.24 -2.8 2.24 c-1.5 0 -2.12 -1.16 -2.12 -2.68 c0 -2.96 2.36 -7.32 5.22 -7.32 c0.96 0 1.46 0.58 1.62 1.44 c1.12 -3.22 2.32 -6.44 2.32 -6.44 l1.68 0 s-4.38 11.88 -4.38 13.52 c0 0.6 0.36 0.94 0.82 0.94 c1.6 0 3.4 -4.18 3.4 -4.18 z M84.48 19.48 c1.64 0 4 -5.02 4 -7.56 c0 -0.84 -0.28 -1.42 -0.92 -1.42 c-1.7 0 -3.86 5.12 -3.86 7.64 c0 0.8 0.24 1.34 0.78 1.34 z"></path></g><g id="SvgjsG1224" featurekey="UyFMmJ-0" transform="matrix(1.4185834080115676,0,0,1.4185834080115676,34.57442343871082,93.70108683888117)" fill="url(#SvgjsLinearGradient1231)"><path d="M9.64 7.380000000000001 l0.44 0 l-0.7 2.72 l-0.54 0 c0.12 -1.42 0 -1.94 -0.82 -1.94 l-1.82 0 l0 10.58 c0 0.5 0.38 0.64 1.42 0.74 l0 0.52 c-1.54 -0.06 -3.2 -0.06 -4.74 0 l0 -0.52 c1.04 -0.1 1.42 -0.24 1.42 -0.74 l0 -10.58 l-1.64 0 c-0.82 0 -1.02 0.32 -1.82 1.94 l-0.54 0 l0.72 -2.72 l0.44 0 c0.5 0.14 0.76 0.2 1.7 0.2 l4.78 0 c0.94 0 1.22 -0.06 1.7 -0.2 z M19.44 16.9 l0.58 0 c-0.34 1.08 -0.5 2.06 -0.58 3.08 c-3 -0.04 -5.62 -0.04 -8.56 0 l0 -0.6 c1.06 -0.1 1.4 -0.2 1.4 -0.7 l0 -9.88 c0 -0.5 -0.34 -0.64 -1.4 -0.72 l0 -0.5 l8.22 0 c0.26 0 0.3 0.06 0.34 0.36 l0.24 2.12 l-0.54 0 l-0.2 -0.42 c-0.54 -1.04 -1.14 -1.46 -2.12 -1.46 l-2.48 0 c-0.1 0 -0.18 0.08 -0.18 0.18 l0 5.02 l2.62 0 c1 0 1.18 -0.54 1.36 -1.32 l0.5 0 c-0.1 1.08 -0.1 2.16 0 3.24 l-0.5 0 c-0.18 -0.8 -0.36 -1.32 -1.36 -1.32 l-2.62 0 l0 5.22 c0 0.1 0.08 0.16 0.18 0.16 l2.26 0 c1.18 0 1.8 -0.36 2.2 -1.18 z M28.42 7.58 c1.42 0.06 2.88 0.06 4.3 0 l0 0.5 c-1.24 0.14 -1.8 0.24 -1.8 0.74 l0 11.18 l-0.54 0 l-6.98 -10.72 l0 9.46 c0 0.5 0.58 0.62 1.82 0.74 l0 0.52 c-1.44 -0.06 -2.88 -0.06 -4.3 0 l0 -0.52 c1.28 -0.12 1.8 -0.24 1.8 -0.74 l0 -9.8 c0 -0.54 -0.52 -0.74 -1.58 -0.86 l0 -0.5 c1.14 0.06 2.26 0.06 3.4 0 l5.7 8.82 l0 -7.58 c0 -0.5 -0.52 -0.6 -1.82 -0.74 l0 -0.5 z M50.52 18.74 c0 0.5 0.38 0.64 1.42 0.74 l0 0.52 c-1.54 -0.06 -3.2 -0.06 -4.74 0 l0 -0.52 c1.04 -0.1 1.42 -0.24 1.42 -0.74 l0 -9.42 l-3.92 10.68 l-4.54 -10.72 l0 9.46 c0 0.5 0.58 0.62 1.84 0.74 l0 0.52 c-1.44 -0.06 -2.9 -0.06 -4.28 0 l0 -0.52 c1.24 -0.12 1.78 -0.24 1.78 -0.74 l0 -9.8 c0 -0.56 -0.54 -0.74 -1.58 -0.86 l0 -0.5 c1.16 0.06 2.32 0.06 3.48 0 l3.8 9.18 l3.38 -9.18 c1.06 0.06 2.24 0.06 3.32 0 l0 0.48 c-1 0.1 -1.38 0.24 -1.38 0.74 l0 9.94 z M56.06 18.74 c0 0.5 0.38 0.64 1.44 0.74 l0 0.52 c-1.56 -0.06 -3.2 -0.06 -4.76 0 l0 -0.52 c1.06 -0.1 1.44 -0.24 1.44 -0.74 l0 -9.92 c0 -0.5 -0.38 -0.62 -1.44 -0.74 l0 -0.5 c1.56 0.06 3.2 0.06 4.76 0 l0 0.5 c-1.06 0.12 -1.44 0.24 -1.44 0.74 l0 9.92 z M65.8 7.58 c1.42 0.06 2.88 0.06 4.3 0 l0 0.5 c-1.24 0.14 -1.8 0.24 -1.8 0.74 l0 11.18 l-0.54 0 l-6.98 -10.72 l0 9.46 c0 0.5 0.58 0.62 1.82 0.74 l0 0.52 c-1.44 -0.06 -2.88 -0.06 -4.3 0 l0 -0.52 c1.28 -0.12 1.8 -0.24 1.8 -0.74 l0 -9.8 c0 -0.54 -0.52 -0.74 -1.58 -0.86 l0 -0.5 c1.14 0.06 2.26 0.06 3.4 0 l5.7 8.82 l0 -7.58 c0 -0.5 -0.52 -0.6 -1.82 -0.74 l0 -0.5 z M75.36 7.58 c3.98 0 6.62 1.9 6.62 6.2 c0 4.22 -2.92 6.22 -5.64 6.22 c-1.06 0 -2.04 -0.3 -2.9 -0.3 c-0.9 0 -1.52 0.08 -2.54 0.3 l0 -0.54 c1 -0.24 1.4 -0.4 1.4 -0.92 l0 -9.34 c0 -0.62 -0.28 -1 -1.36 -1.12 l0 -0.5 c1.74 0.08 2.86 0 4.42 0 z M76.02000000000001 19.38 c2.92 0.06 3.92 -2.28 3.92 -5.58 c0 -3.14 -1.28 -5.7 -4.4 -5.64 c-0.36 0 -0.78 0 -1.36 0.04 l0 10.18 c0 0.8 0.8 0.98 1.84 1 z M89.8 17.46 c0 -1.6 -1.36 -2.3 -2.9 -3 c-1.9 -0.88 -3.5 -1.9 -3.5 -3.94 c0 -1.8 1.36 -3.26 3.68 -3.26 c1.5 0 2 0.46 2.46 0.46 c0.22 0 0.38 -0.04 0.46 -0.3 l0.52 0 l0.14 2.62 l-0.32 -0.02 c-0.22 -0.02 -0.32 -0.06 -0.42 -0.3 c-0.5 -1.06 -1.52 -1.88 -2.76 -1.88 c-1.36 0 -2.14 0.96 -2.14 2.06 c0 1.36 0.92 1.98 2.48 2.72 c1.64 0.76 4.14 1.68 4.14 4.16 c0 2.2 -2.04 3.48 -4 3.48 c-1.66 0 -2.46 -0.76 -3.04 -0.76 c-0.3 0 -0.5 0.2 -0.58 0.48 l-0.56 0 l-0.18 -2.8 l0.48 0 c0.18 0 0.26 0.08 0.36 0.3 c0.5 1.14 1.58 2.14 3.26 2.14 c1.5 0 2.42 -0.88 2.42 -2.16 z M94.36 22.06 c-0.12 0.1 -0.2 0.1 -0.3 0 l-0.14 -0.2 c0.36 -0.38 0.66 -1.02 0.66 -1.56 c0 -0.06 0 -0.14 -0.04 -0.2 c-0.1 0.02 -0.16 0.04 -0.32 0.04 c-0.52 0 -0.98 -0.44 -0.98 -1.02 c0 -0.66 0.48 -1.1 1.1 -1.1 c0.76 0 1.2 0.7 1.2 1.5 c0 0.94 -0.48 1.92 -1.18 2.54 z M107.28 7.26 c3.32 0 5.64 2.82 5.64 6.52 c0 3.66 -2.22 6.48 -5.54 6.48 s-5.64 -2.84 -5.64 -6.54 c0 -3.66 2.22 -6.46 5.54 -6.46 z M107.60000000000001 19.66 c1.64 0 3.28 -1.26 3.28 -5.3 c0 -3.8 -1.64 -6.52 -3.92 -6.52 c-1.54 0 -3.18 1.28 -3.18 5.32 c0 3.78 1.64 6.5 3.82 6.5 z M121.02 7.58 c1.42 0.06 2.88 0.06 4.3 0 l0 0.5 c-1.24 0.14 -1.8 0.24 -1.8 0.74 l0 11.18 l-0.54 0 l-6.98 -10.72 l0 9.46 c0 0.5 0.58 0.62 1.82 0.74 l0 0.52 c-1.44 -0.06 -2.88 -0.06 -4.3 0 l0 -0.52 c1.28 -0.12 1.8 -0.24 1.8 -0.74 l0 -9.8 c0 -0.54 -0.52 -0.74 -1.58 -0.86 l0 -0.5 c1.14 0.06 2.26 0.06 3.4 0 l5.7 8.82 l0 -7.58 c0 -0.5 -0.52 -0.6 -1.82 -0.74 l0 -0.5 z M134.68 16.9 l0.58 0 c-0.34 1.08 -0.5 2.06 -0.58 3.08 c-3 -0.04 -5.62 -0.04 -8.56 0 l0 -0.6 c1.06 -0.1 1.4 -0.2 1.4 -0.7 l0 -9.88 c0 -0.5 -0.34 -0.64 -1.4 -0.72 l0 -0.5 l8.22 0 c0.26 0 0.3 0.06 0.34 0.36 l0.24 2.12 l-0.54 0 l-0.2 -0.42 c-0.54 -1.04 -1.14 -1.46 -2.12 -1.46 l-2.48 0 c-0.1 0 -0.18 0.08 -0.18 0.18 l0 5.02 l2.62 0 c1 0 1.18 -0.54 1.36 -1.32 l0.5 0 c-0.1 1.08 -0.1 2.16 0 3.24 l-0.5 0 c-0.18 -0.8 -0.36 -1.32 -1.36 -1.32 l-2.62 0 l0 5.22 c0 0.1 0.08 0.16 0.18 0.16 l2.26 0 c1.18 0 1.8 -0.36 2.2 -1.18 z M146.22000000000003 20.18 l-4.3 -11.38 c-0.18 -0.46 -0.4 -0.6 -1.46 -0.72 l0 -0.5 c1.6 0.06 3.1 0.06 4.68 0 l0 0.5 c-1.04 0.12 -1.42 0.26 -1.24 0.72 l3.36 8.78 l3.02 -8.78 c0.18 -0.5 -0.44 -0.6 -1.48 -0.72 l0 -0.5 c1.32 0.06 2.62 0.06 3.96 0 l0 0.5 c-1.06 0.12 -1.62 0.22 -1.8 0.72 l-4 11.38 l-0.74 0 z M156.78 18.74 c0 0.5 0.38 0.64 1.44 0.74 l0 0.52 c-1.56 -0.06 -3.2 -0.06 -4.76 0 l0 -0.52 c1.06 -0.1 1.44 -0.24 1.44 -0.74 l0 -9.92 c0 -0.5 -0.38 -0.62 -1.44 -0.74 l0 -0.5 c1.56 0.06 3.2 0.06 4.76 0 l0 0.5 c-1.06 0.12 -1.44 0.24 -1.44 0.74 l0 9.92 z M165.74 17.46 c0 -1.6 -1.36 -2.3 -2.9 -3 c-1.9 -0.88 -3.5 -1.9 -3.5 -3.94 c0 -1.8 1.36 -3.26 3.68 -3.26 c1.5 0 2 0.46 2.46 0.46 c0.22 0 0.38 -0.04 0.46 -0.3 l0.52 0 l0.14 2.62 l-0.32 -0.02 c-0.22 -0.02 -0.32 -0.06 -0.42 -0.3 c-0.5 -1.06 -1.52 -1.88 -2.76 -1.88 c-1.36 0 -2.14 0.96 -2.14 2.06 c0 1.36 0.92 1.98 2.48 2.72 c1.64 0.76 4.14 1.68 4.14 4.16 c0 2.2 -2.04 3.48 -4 3.48 c-1.66 0 -2.46 -0.76 -3.04 -0.76 c-0.3 0 -0.5 0.2 -0.58 0.48 l-0.56 0 l-0.18 -2.8 l0.48 0 c0.18 0 0.26 0.08 0.36 0.3 c0.5 1.14 1.58 2.14 3.26 2.14 c1.5 0 2.42 -0.88 2.42 -2.16 z M171.67999999999998 18.74 c0 0.5 0.38 0.64 1.44 0.74 l0 0.52 c-1.56 -0.06 -3.2 -0.06 -4.76 0 l0 -0.52 c1.06 -0.1 1.44 -0.24 1.44 -0.74 l0 -9.92 c0 -0.5 -0.38 -0.62 -1.44 -0.74 l0 -0.5 c1.56 0.06 3.2 0.06 4.76 0 l0 0.5 c-1.06 0.12 -1.44 0.24 -1.44 0.74 l0 9.92 z M179.64 7.26 c3.32 0 5.64 2.82 5.64 6.52 c0 3.66 -2.22 6.48 -5.54 6.48 s-5.64 -2.84 -5.64 -6.54 c0 -3.66 2.22 -6.46 5.54 -6.46 z M179.95999999999998 19.66 c1.64 0 3.28 -1.26 3.28 -5.3 c0 -3.8 -1.64 -6.52 -3.92 -6.52 c-1.54 0 -3.18 1.28 -3.18 5.32 c0 3.78 1.64 6.5 3.82 6.5 z M193.38 7.58 c1.42 0.06 2.88 0.06 4.3 0 l0 0.5 c-1.24 0.14 -1.8 0.24 -1.8 0.74 l0 11.18 l-0.54 0 l-6.98 -10.72 l0 9.46 c0 0.5 0.58 0.62 1.82 0.74 l0 0.52 c-1.44 -0.06 -2.88 -0.06 -4.3 0 l0 -0.52 c1.28 -0.12 1.8 -0.24 1.8 -0.74 l0 -9.8 c0 -0.54 -0.52 -0.74 -1.58 -0.86 l0 -0.5 c1.14 0.06 2.26 0.06 3.4 0 l5.7 8.82 l0 -7.58 c0 -0.5 -0.52 -0.6 -1.82 -0.74 l0 -0.5 z"></path></g></svg>